<?xml version="1.0" encoding="UTF-8"?>
<svg id="Layer_1" xmlns="http://www.w3.org/2000/svg" version="1.1" viewBox="0 0 18.95 19.37">
  <!-- Generator: Adobe Illustrator 29.1.0, SVG Export Plug-In . SVG Version: 2.1.0 Build 142)  -->
  <path d="M11.86,17.76c0,.45-.36.82-.8.82h-3.17c-.44,0-.8-.37-.8-.82v-4.84h-.77v4.84c0,.89.71,1.61,1.57,1.61h3.17c.87,0,1.57-.72,1.57-1.61v-4.84h-.77v4.84Z"/>
  <path d="M7.08,1.61c0-.45.36-.82.8-.82h3.17c.44,0,.8.37.8.82v4.84h.77V1.61c0-.89-.71-1.61-1.57-1.61h-3.17c-.87,0-1.57.72-1.57,1.61v4.84h.77V1.61Z"/>
  <path d="M1.57,12.13c-.44,0-.8-.37-.8-.82v-3.24c0-.45.36-.82.8-.82h4.74v-.79H1.57c-.87,0-1.57.72-1.57,1.61v3.24c0,.89.71,1.61,1.57,1.61h4.74v-.79H1.57Z"/>
  <path d="M17.37,6.45h-4.74v.79h4.74c.44,0,.8.37.8.82v3.24c0,.45-.36.82-.8.82h-4.74v.79h4.74c.87,0,1.57-.72,1.57-1.61v-3.24c0-.89-.71-1.61-1.57-1.61Z"/>
  <rect x="6.31" y="6.45" width=".77" height=".79"/>
  <rect x="11.86" y="6.45" width=".77" height=".79"/>
  <rect x="11.86" y="12.13" width=".77" height=".79"/>
  <rect x="6.31" y="12.13" width=".77" height=".79"/>
</svg>