<?xml version="1.0" encoding="UTF-8"?>
<svg id="Layer_1" xmlns="http://www.w3.org/2000/svg" version="1.1" viewBox="0 0 35.48 35.43">
  <!-- Generator: Adobe Illustrator 29.1.0, SVG Export Plug-In . SVG Version: 2.1.0 Build 142)  -->
  <defs>
    <style>
      .st0 {
        fill: #231f20;
      }
    </style>
  </defs>
  <path class="st0" d="M16.22,34.98s-.03,0-.05,0C7.35,34.18.43,26.61.43,17.74.43,8.19,8.19.43,17.74.43s17.31,7.77,17.31,17.31c0,4.24-1.56,8.33-4.39,11.5-.16.18-.42.22-.62.1-.21-.12-.3-.36-.23-.59,1.46-4.6,1.69-6.81.28-11.61-.85-2.87-3.3-7.72-10.25-7.89-.06,0-7.53.09-8.21,5.49-.01.11-.41,2.94-6.52,3.96-.3.05-.52.29-.55.59-.12,1.51.03,5.22,3.87,7.15.3.15.63.21.97.17,1.39-.16,4.82-.29,6.6,1.87h0c1.13,1.38,1.37,3.44.71,6.11-.06.22-.26.38-.48.38ZM17.74,1.43C8.75,1.43,1.43,8.75,1.43,17.74c0,8.21,6.29,15.24,14.4,16.2.46-2.14.26-3.76-.61-4.81h0c-1.46-1.78-4.48-1.65-5.71-1.51-.53.06-1.06-.04-1.53-.27-4.38-2.21-4.55-6.42-4.42-8.12.06-.76.62-1.38,1.38-1.5,5.25-.88,5.69-3.09,5.7-3.11.78-6.28,9.13-6.35,9.21-6.35,7.6.19,10.28,5.48,11.2,8.61,1.18,4.02,1.26,6.38.47,9.6,1.65-2.6,2.54-5.62,2.54-8.73,0-8.99-7.32-16.31-16.31-16.31Z"/>
  <g>
    <path d="M15.94,28.54c-1.75-2.13-5.15-2-6.53-1.85-.35.04-.69-.02-1.01-.18-3.88-1.95-4.03-5.7-3.91-7.22.03-.33.27-.6.6-.66,6.11-1.02,6.45-3.79,6.46-3.9.68-5.48,8.21-5.54,8.28-5.54,6.99.17,9.46,5.05,10.32,7.95,1.53,5.19,1.1,7.47-.55,12.51.24-.24.46-.48.69-.73,1.45-4.55,1.75-6.9.28-11.9-.88-3-3.45-8.07-10.72-8.25-.08,0-7.98.07-8.72,5.92,0,.03-.36,2.57-6.11,3.53-.53.09-.92.52-.96,1.05-.12,1.61.04,5.57,4.15,7.64.39.2.82.27,1.25.22,1.31-.15,4.54-.28,6.15,1.69,1.03,1.25,1.23,3.16.61,5.67.14.01.29.02.43.03.64-2.62.4-4.62-.71-5.98Z"/>
    <path class="st0" d="M16.66,35.01s-.02,0-.03,0c-.15,0-.3-.02-.45-.03-.15-.01-.28-.09-.36-.21-.08-.12-.11-.27-.08-.41.58-2.35.41-4.11-.51-5.23-1.46-1.78-4.48-1.65-5.71-1.51-.53.06-1.06-.04-1.53-.27-4.38-2.21-4.55-6.42-4.42-8.12.06-.76.62-1.38,1.38-1.5,5.25-.88,5.69-3.09,5.7-3.11.78-6.28,9.13-6.35,9.21-6.35,7.6.19,10.28,5.48,11.2,8.61,1.48,5.02,1.23,7.45-.28,12.2-.02.07-.06.13-.1.18-.23.26-.46.51-.71.75-.16.16-.42.19-.61.07-.2-.12-.29-.36-.21-.58,1.62-4.94,2.05-7.13.55-12.22-.81-2.76-3.17-7.42-9.85-7.59-.06,0-7.15.09-7.78,5.11-.03.32-.5,3.27-6.88,4.33-.1.02-.18.1-.19.2-.11,1.42.03,4.92,3.64,6.74.23.11.47.16.73.13,1.46-.16,5.07-.3,6.98,2.02,1.21,1.48,1.49,3.63.81,6.41-.05.23-.26.38-.49.38Z"/>
  </g>
  <g>
    <path d="M25.58,14.25c-.11.04-.16.17-.12.28.76,1.9.04,7.52-2.03,9.93-.88,1.02-1.9,1.4-3.04,1.13-.69-.16-1.25-.59-1.66-1.26-2.03-3.32-.03-11.57-.01-11.65.03-.12-.04-.23-.16-.26-.11-.03-.23.04-.26.16-.09.35-2.06,8.5.06,11.98.47.78,1.12,1.27,1.93,1.46.27.06.53.09.79.09.99,0,1.9-.46,2.68-1.36,2.2-2.56,2.92-8.34,2.11-10.37-.04-.11-.17-.16-.28-.12Z"/>
    <path class="st0" d="M21.07,26.6c-.3,0-.6-.04-.9-.11-.94-.22-1.7-.79-2.24-1.68-2.23-3.66-.21-12-.12-12.36.05-.19.16-.34.33-.44.16-.1.36-.13.54-.08.18.04.34.16.44.32.1.16.13.36.08.54-.55,2.25-1.64,8.66-.05,11.27.34.56.79.9,1.35,1.04.96.23,1.79-.09,2.55-.97,1.94-2.25,2.65-7.67,1.95-9.42-.07-.18-.07-.37,0-.55.07-.17.21-.31.39-.38.18-.07.37-.07.55,0,.18.08.31.21.38.39.86,2.14.19,8.11-2.19,10.88-.86,1-1.92,1.53-3.06,1.53ZM25.39,14.55h0s0,0,0,0ZM25.92,14.34s0,0,0,0c0,0,0,0,0,0ZM25.58,14.25h0,0Z"/>
  </g>
  <g>
    <path d="M17.74.5C8.23.5.5,8.23.5,17.74c0,8.96,6.87,16.34,15.61,17.16.04-.14.08-.28.11-.42C7.66,33.71.93,26.5.93,17.74.93,8.47,8.47.93,17.74.93s16.81,7.54,16.81,16.81c0,4.29-1.61,8.2-4.26,11.17-.1.31-.2.63-.31.96,3.09-3.12,5-7.4,5-12.13C34.98,8.23,27.25.5,17.74.5Z"/>
    <path class="st0" d="M16.11,35.4s-.03,0-.05,0C6.91,34.54,0,26.94,0,17.74,0,7.96,7.96,0,17.74,0s17.74,7.96,17.74,17.74c0,4.7-1.83,9.13-5.15,12.48-.16.16-.42.2-.62.07-.2-.12-.29-.36-.21-.58l.31-.95c.02-.07.06-.13.1-.18,2.67-2.99,4.14-6.84,4.14-10.84,0-8.99-7.32-16.31-16.31-16.31S1.43,8.75,1.43,17.74c0,8.36,6.52,15.49,14.84,16.24.15.01.28.09.36.21.08.12.11.27.08.41-.04.14-.07.29-.12.44-.06.22-.26.37-.48.37Z"/>
  </g>
  <g>
    <path d="M29.6,29.64s-.03.08-.04.12c-.04.11.02.23.14.27.04.01.07.01.11,0,.06-.06.12-.11.17-.17.11-.33.21-.65.31-.96-.22.25-.45.49-.69.73Z"/>
    <path class="st0" d="M29.75,30.55c-.07,0-.14-.01-.21-.03-.37-.12-.58-.53-.46-.9.02-.08.11-.27.16-.32.23-.23.45-.47.67-.71.16-.18.42-.22.62-.1.21.12.3.36.23.59l-.31.96c-.02.07-.06.14-.12.19l-.12.12c-.07.07-.21.17-.31.19-.05,0-.1.01-.15.01ZM29.82,29.72l.24.08-.24-.08Z"/>
  </g>
  <g>
    <path d="M16.22,34.48c-.03.14-.07.28-.11.42.14.01.29.02.44.03.04-.14.08-.28.11-.42-.15,0-.29-.02-.43-.03Z"/>
    <path class="st0" d="M16.54,35.43s-.02,0-.04,0l-.45-.03c-.15-.01-.28-.09-.37-.21-.08-.12-.11-.27-.07-.42.04-.14.08-.27.11-.41.06-.24.29-.4.53-.38.14.01.28.02.42.03.15,0,.28.08.37.2.09.12.12.27.08.41-.03.14-.07.29-.11.43-.06.22-.26.37-.48.37Z"/>
  </g>
</svg>