<?xml version="1.0" encoding="UTF-8"?>
<svg id="Layer_1" xmlns="http://www.w3.org/2000/svg" version="1.1" viewBox="0 0 16.62 19.59">
  <!-- Generator: Adobe Illustrator 29.1.0, SVG Export Plug-In . SVG Version: 2.1.0 Build 142)  -->
  <defs>
    <style>
      .st0 {
        fill: #231f20;
      }
    </style>
  </defs>
  <path class="st0" d="M15.23,19.59h-3.82c-.77,0-1.39-.62-1.39-1.39v-4.29c0-.35-.29-.64-.64-.64h-2.14c-.35,0-.64.29-.64.64v4.29c0,.77-.62,1.39-1.39,1.39H1.39c-.77,0-1.39-.62-1.39-1.39v-9.9c0-.37.15-.72.41-.98L7.33.39c.53-.53,1.44-.52,1.97,0l6.92,6.92c.26.26.41.62.41.98v9.9c0,.77-.62,1.39-1.39,1.39ZM7.24,12.52h2.14c.77,0,1.39.62,1.39,1.39v4.29c0,.35.29.64.64.64h3.82c.35,0,.64-.29.64-.64v-9.9c0-.17-.07-.33-.19-.45L8.76.92c-.24-.24-.66-.24-.91,0L.94,7.84c-.12.12-.19.28-.19.45v9.9c0,.35.29.64.64.64h3.82c.35,0,.64-.29.64-.64v-4.29c0-.77.62-1.39,1.39-1.39Z"/>
</svg>