<?xml version="1.0" encoding="UTF-8"?>
<svg id="Layer_1" xmlns="http://www.w3.org/2000/svg" version="1.1" viewBox="0 0 177.43 70.84">
  <!-- Generator: Adobe Illustrator 29.1.0, SVG Export Plug-In . SVG Version: 2.1.0 Build 142)  -->
  <defs>
    <style>
      .st0 {
        fill: #231f20;
      }
    </style>
  </defs>
  <g>
    <path class="st0" d="M29.29,25.13c-.26,0-.47-.04-.63-.11-.16-.07-.26-.19-.32-.36-.06-.17-.09-.38-.09-.65V1.08c0-.24.04-.44.13-.59.08-.16.21-.28.38-.36.17-.08.36-.13.58-.13h8.1c1.22,0,2.31.17,3.26.52.95.35,1.75.86,2.41,1.55.66.68,1.16,1.51,1.51,2.47.35.96.52,2.05.52,3.28s-.17,2.31-.52,3.26c-.35.95-.86,1.76-1.53,2.43-.67.67-1.48,1.18-2.43,1.53-.95.35-2.03.52-3.26.52h-6.98v8.5c0,.26-.04.47-.11.63-.07.16-.19.27-.34.34-.16.07-.38.11-.67.11ZM30.41,13.39h7.02c1.18,0,2.18-.22,3.01-.67.83-.44,1.46-1.09,1.91-1.94.44-.85.67-1.87.67-3.04s-.22-2.18-.67-3.01-1.09-1.46-1.93-1.91c-.84-.44-1.85-.67-3.02-.67h-6.98v11.23Z"/>
    <path class="st0" d="M64.65,25.09c-.34,0-.58-.08-.72-.25-.14-.17-.24-.48-.29-.94v-2.41c-.26.46-.68.97-1.24,1.53-.56.56-1.3,1.06-2.2,1.48-.9.42-1.99.63-3.26.63-1.18,0-2.26-.22-3.26-.67-1-.44-1.87-1.06-2.61-1.85-.74-.79-1.33-1.71-1.75-2.75s-.63-2.18-.63-3.4.21-2.27.63-3.29c.42-1.02,1.01-1.92,1.76-2.7.76-.78,1.63-1.39,2.63-1.84,1-.44,2.07-.67,3.22-.67s2.09.14,2.9.43c.8.29,1.51.68,2.12,1.19.61.5,1.17,1.09,1.67,1.76v-2.05c0-.48.08-.82.23-1.03.16-.2.43-.31.81-.31.24,0,.43.04.56.13.13.08.23.22.29.41.06.19.09.46.09.79v14.62c0,.29-.03.52-.09.7-.06.18-.16.31-.31.38-.14.07-.34.11-.58.11ZM57.34,23.26c1.15,0,2.2-.29,3.13-.88.94-.59,1.68-1.39,2.23-2.39.55-1.01.83-2.16.83-3.46,0-1.37-.29-2.56-.86-3.56s-1.34-1.79-2.29-2.36-1.99-.85-3.11-.85c-1.32,0-2.47.3-3.46.9-.98.6-1.75,1.41-2.3,2.43-.55,1.02-.83,2.19-.83,3.51s.28,2.41.83,3.42c.55,1.01,1.33,1.8,2.34,2.38,1.01.58,2.17.86,3.49.86Z"/>
    <path class="st0" d="M76.2,24.95c-.22,0-.39-.02-.52-.07-.13-.05-.23-.13-.31-.23-.07-.11-.13-.26-.18-.45l-5.83-14.98c-.1-.26-.14-.47-.13-.63.01-.16.08-.29.22-.41.13-.12.32-.22.56-.29.41-.12.7-.14.88-.07.18.07.34.3.49.68l4.86,12.82,4.5-12.71c.07-.19.15-.35.23-.47.08-.12.2-.21.34-.27.14-.06.32-.09.54-.09.24,0,.43.03.56.09.13.06.25.14.34.25.1.11.17.25.22.41l4.5,12.89,4.86-12.85c.17-.43.35-.7.56-.79.2-.1.51-.08.92.04.34.1.55.25.65.45.1.2.06.52-.11.95l-5.83,15.01c-.05.17-.11.31-.2.41-.08.11-.19.19-.32.23-.13.05-.29.07-.49.07s-.35-.02-.49-.07c-.13-.05-.24-.14-.32-.27-.08-.13-.16-.29-.23-.49l-4.61-13.32-4.61,13.32c-.07.19-.15.35-.23.49s-.19.22-.32.27c-.13.05-.29.07-.49.07Z"/>
    <path class="st0" d="M103.88,25.24c-.55,0-1.11-.05-1.67-.16-.56-.11-1.1-.26-1.62-.47-.52-.2-.99-.44-1.42-.72-.43-.28-.78-.58-1.04-.92-.17-.24-.29-.44-.36-.61-.07-.17-.08-.32-.02-.47.06-.14.17-.28.34-.4.26-.29.52-.41.76-.36.24.05.55.28.94.68.22.24.49.46.83.67.34.2.7.38,1.08.52.38.14.77.25,1.15.32.38.07.74.11,1.08.11,1.32,0,2.39-.26,3.2-.77.82-.52,1.22-1.22,1.22-2.11,0-.46-.08-.86-.25-1.21-.17-.35-.4-.64-.68-.88-.29-.24-.62-.45-.99-.63s-.78-.34-1.22-.47c-.44-.13-.89-.26-1.35-.38-.67-.17-1.34-.35-2-.56-.66-.2-1.25-.46-1.78-.77-.53-.31-.95-.72-1.28-1.22s-.49-1.15-.49-1.94c0-.91.23-1.7.7-2.38.47-.67,1.12-1.2,1.96-1.58.84-.38,1.81-.58,2.92-.58.55,0,1.07.04,1.55.13.48.08.93.21,1.35.38.42.17.82.37,1.19.59.37.23.71.5,1.03.81.29.26.44.5.47.72.02.22-.06.44-.25.68-.22.24-.44.38-.68.41-.24.04-.49-.08-.76-.34-.38-.38-.79-.69-1.21-.92-.42-.23-.85-.4-1.3-.52-.45-.12-.91-.18-1.39-.18-.7,0-1.32.11-1.87.34-.55.23-.98.55-1.28.97-.3.42-.45.91-.45,1.46,0,.41.1.75.31,1.03s.47.51.81.7c.34.19.73.36,1.19.5s.94.29,1.44.43c.72.19,1.45.4,2.2.63s1.42.53,2.03.9c.61.37,1.11.86,1.49,1.46.38.6.58,1.38.58,2.34,0,1.44-.61,2.59-1.82,3.46s-2.75,1.3-4.63,1.3Z"/>
    <path class="st0" d="M116.16,2.77c-.34,0-.6-.05-.79-.14-.19-.1-.33-.25-.41-.47-.08-.22-.13-.49-.13-.83s.04-.6.13-.79c.08-.19.23-.33.43-.41.2-.08.47-.13.81-.13s.6.05.79.14c.19.1.33.25.41.45.08.2.13.49.13.85,0,.31-.04.57-.13.77-.08.2-.22.35-.41.43-.19.08-.47.13-.83.13ZM116.16,25.13c-.24,0-.44-.04-.59-.11-.16-.07-.26-.19-.32-.34-.06-.16-.09-.37-.09-.63v-15.05c0-.26.03-.47.09-.63.06-.16.17-.26.32-.32.16-.06.37-.09.63-.09s.47.04.61.11c.14.07.25.19.31.34.06.16.09.38.09.67v15.01c0,.26-.03.47-.09.63s-.17.26-.32.32c-.16.06-.37.09-.63.09Z"/>
    <path class="st0" d="M122.39,8.42l3.2.07,5-.07c.26,0,.47.03.63.09s.27.16.34.31c.07.14.11.34.11.58,0,.26-.03.47-.09.63-.06.16-.16.26-.31.32-.14.06-.35.09-.61.09l-5.08-.07-3.28.07c-.38,0-.65-.08-.79-.23-.14-.16-.22-.43-.22-.81,0-.36.08-.61.25-.76.17-.14.44-.22.83-.22ZM130.38,25.13c-1.08,0-1.99-.1-2.72-.29-.73-.19-1.33-.49-1.78-.9-.46-.41-.78-.95-.97-1.64-.19-.68-.29-1.53-.29-2.54V3.2c0-.29.03-.51.09-.67.06-.16.16-.27.31-.34.14-.07.34-.11.58-.11.26,0,.47.03.63.09.16.06.27.16.34.31.07.14.11.35.11.61v16.74c0,.74.07,1.34.2,1.78.13.44.34.77.61.99.28.22.65.35,1.13.41.48.06,1.06.09,1.73.09.29,0,.51.03.67.09s.27.16.34.31c.07.14.11.35.11.61s-.04.47-.11.61c-.07.14-.19.25-.34.31-.16.06-.37.09-.63.09Z"/>
    <path class="st0" d="M136.79,2.77c-.34,0-.6-.05-.79-.14-.19-.1-.33-.25-.41-.47-.08-.22-.13-.49-.13-.83s.04-.6.13-.79c.08-.19.23-.33.43-.41.2-.08.47-.13.81-.13s.6.05.79.14c.19.1.33.25.41.45.08.2.13.49.13.85,0,.31-.04.57-.13.77-.08.2-.22.35-.41.43-.19.08-.47.13-.83.13ZM136.79,25.13c-.24,0-.44-.04-.59-.11-.16-.07-.26-.19-.32-.34-.06-.16-.09-.37-.09-.63v-15.05c0-.26.03-.47.09-.63.06-.16.17-.26.32-.32.16-.06.37-.09.63-.09s.47.04.61.11c.14.07.25.19.31.34.06.16.09.38.09.67v15.01c0,.26-.03.47-.09.63s-.17.26-.32.32c-.16.06-.37.09-.63.09Z"/>
    <path class="st0" d="M150.07,25.13c-.31,0-.56-.04-.74-.11-.18-.07-.33-.23-.45-.47l-6.77-15.3c-.17-.41-.19-.7-.05-.86.13-.17.35-.34.67-.5.29-.14.55-.19.77-.13.23.06.41.26.56.59l6.01,14.44,5.9-13.97c.14-.34.32-.64.52-.9.2-.26.57-.26,1.1,0,.5.24.73.5.67.79-.06.29-.15.56-.27.83l-6.7,14.98c-.1.22-.24.37-.43.47-.19.1-.46.14-.79.14Z"/>
    <path class="st0" d="M170.05,25.2c-1.32,0-2.53-.22-3.62-.65-1.09-.43-2.03-1.04-2.81-1.84-.78-.79-1.39-1.73-1.82-2.81-.43-1.08-.65-2.28-.65-3.6,0-1.56.37-2.96,1.12-4.21.74-1.25,1.78-2.24,3.1-2.97,1.32-.73,2.83-1.1,4.54-1.1,1.1,0,2.11.17,3.02.5.91.34,1.7.79,2.38,1.37s1.19,1.24,1.57,1.98c.37.74.56,1.51.56,2.3,0,1.18-.27,1.97-.81,2.39s-1.19.63-1.96.63h-11.34c-.05,1.27.27,2.36.95,3.28.68.91,1.55,1.61,2.59,2.11,1.04.49,2.09.74,3.15.74.7,0,1.3-.04,1.82-.11.52-.07.96-.17,1.33-.31s.69-.26.95-.4c.26-.13.5-.26.72-.4s.42-.23.61-.31c.12-.05.26-.07.41-.05.16.01.27.08.34.2.12.17.2.32.25.45s.07.28.07.45c0,.22-.29.51-.86.88-.58.37-1.36.71-2.34,1.01-.98.3-2.08.45-3.28.45ZM163.32,15.48h10.73c.48,0,.85-.05,1.12-.16.26-.11.4-.46.4-1.06,0-.79-.25-1.52-.74-2.18-.49-.66-1.16-1.19-2-1.6-.84-.41-1.8-.61-2.88-.61-1.2,0-2.31.24-3.33.72-1.02.48-1.83,1.15-2.43,2-.6.85-.89,1.82-.86,2.9Z"/>
  </g>
  <g>
    <path class="st0" d="M58.27,58.33c-.26,0-.47-.04-.63-.11-.16-.07-.26-.19-.32-.36-.06-.17-.09-.38-.09-.65v-22.93c0-.41.08-.69.25-.85.17-.16.47-.23.9-.23h14.9c.26,0,.47.04.61.11.14.07.25.19.31.34.06.16.09.38.09.67,0,.26-.04.47-.11.63-.07.16-.19.26-.34.32-.16.06-.37.09-.63.09h-13.86v8.89h9.72c.26,0,.47.04.63.11.16.07.27.19.34.34.07.16.11.38.11.67,0,.26-.04.47-.11.63-.07.16-.19.26-.34.32-.16.06-.38.09-.67.09h-9.68v10.84c0,.26-.04.47-.11.63-.07.16-.19.27-.34.34-.16.07-.37.11-.63.11Z"/>
    <path class="st0" d="M86.1,58.36c-1.03,0-1.98-.17-2.84-.52s-1.62-.85-2.27-1.51c-.65-.66-1.15-1.46-1.51-2.41-.36-.95-.54-2.03-.54-3.26v-8.46c0-.26.03-.47.09-.63.06-.16.17-.26.32-.32.16-.06.35-.09.59-.09.26,0,.47.04.63.11.16.07.26.19.32.34.06.16.09.37.09.63v8.46c0,1.15.19,2.17.58,3.04.38.88.96,1.55,1.73,2.03.77.48,1.73.72,2.88.72s2.18-.24,3.02-.72c.84-.48,1.49-1.16,1.94-2.03.46-.88.68-1.89.68-3.04v-8.5c0-.26.03-.47.09-.63.06-.16.17-.26.32-.32.16-.06.37-.09.63-.09.24,0,.43.04.58.11s.25.19.31.34c.06.16.09.37.09.63v15.12c0,.22-.03.4-.09.54-.06.14-.16.25-.31.31-.14.06-.35.09-.61.09-.17,0-.31-.02-.43-.05-.12-.04-.22-.09-.29-.16-.07-.07-.13-.17-.16-.29-.04-.12-.05-.26-.05-.43v-2.12c-.31.41-.66.8-1.04,1.17-.38.37-.81.71-1.28,1.01-.47.3-.99.53-1.57.7-.58.17-1.21.25-1.91.25Z"/>
    <path class="st0" d="M98.52,41.62l3.2.07,5-.07c.26,0,.47.03.63.09s.27.16.34.31c.07.14.11.34.11.58,0,.26-.03.47-.09.63-.06.16-.16.26-.31.32-.14.06-.35.09-.61.09l-5.08-.07-3.28.07c-.38,0-.65-.08-.79-.23-.14-.16-.22-.43-.22-.81,0-.36.08-.61.25-.76.17-.14.44-.22.83-.22ZM106.51,58.33c-1.08,0-1.99-.1-2.72-.29-.73-.19-1.33-.49-1.78-.9-.46-.41-.78-.95-.97-1.64-.19-.68-.29-1.53-.29-2.54v-16.56c0-.29.03-.51.09-.67.06-.16.16-.27.31-.34.14-.07.34-.11.58-.11.26,0,.47.03.63.09.16.06.27.16.34.31.07.14.11.35.11.61v16.74c0,.74.07,1.34.2,1.78.13.44.34.77.61.99.28.22.65.35,1.13.41.48.06,1.06.09,1.73.09.29,0,.51.03.67.09s.27.16.34.31c.07.14.11.35.11.61s-.04.47-.11.61c-.07.14-.19.25-.34.31-.16.06-.37.09-.63.09Z"/>
    <path class="st0" d="M118.21,58.36c-1.03,0-1.98-.17-2.84-.52s-1.62-.85-2.27-1.51c-.65-.66-1.15-1.46-1.51-2.41-.36-.95-.54-2.03-.54-3.26v-8.46c0-.26.03-.47.09-.63.06-.16.17-.26.32-.32.16-.06.35-.09.59-.09.26,0,.47.04.63.11.16.07.26.19.32.34.06.16.09.37.09.63v8.46c0,1.15.19,2.17.58,3.04.38.88.96,1.55,1.73,2.03.77.48,1.73.72,2.88.72s2.18-.24,3.02-.72c.84-.48,1.49-1.16,1.94-2.03.46-.88.68-1.89.68-3.04v-8.5c0-.26.03-.47.09-.63.06-.16.17-.26.32-.32.16-.06.37-.09.63-.09.24,0,.43.04.58.11s.25.19.31.34c.06.16.09.37.09.63v15.12c0,.22-.03.4-.09.54-.06.14-.16.25-.31.31-.14.06-.35.09-.61.09-.17,0-.31-.02-.43-.05-.12-.04-.22-.09-.29-.16-.07-.07-.13-.17-.16-.29-.04-.12-.05-.26-.05-.43v-2.12c-.31.41-.66.8-1.04,1.17-.38.37-.81.71-1.28,1.01-.47.3-.99.53-1.57.7-.58.17-1.21.25-1.91.25Z"/>
    <path class="st0" d="M131.96,58.33c-.24,0-.43-.04-.58-.11-.14-.07-.25-.19-.31-.36-.06-.17-.09-.38-.09-.65v-15.01c0-.29.03-.51.09-.67.06-.16.16-.26.31-.31.14-.05.35-.07.61-.07.24,0,.44.02.59.07.16.05.27.15.34.31.07.16.11.38.11.67v1.51c.24-.41.48-.78.72-1.12.24-.34.53-.63.86-.88.34-.25.75-.45,1.24-.59.49-.14,1.11-.22,1.85-.22.38,0,.74.04,1.06.11.32.07.62.17.9.29.28.12.51.25.7.4s.34.29.43.43c.1.14.14.29.14.43,0,.31-.13.58-.4.79-.26.22-.5.32-.72.32-.26,0-.46-.04-.59-.13s-.27-.19-.41-.31c-.14-.12-.36-.22-.65-.31-.29-.08-.73-.13-1.33-.13-.36,0-.76.08-1.19.23-.43.16-.85.39-1.24.7-.4.31-.73.72-.99,1.22-.26.5-.4,1.1-.4,1.8v10.51c0,.26-.03.47-.09.63-.06.16-.17.26-.32.32-.16.06-.38.09-.67.09Z"/>
    <path class="st0" d="M153.1,58.4c-1.32,0-2.53-.22-3.62-.65-1.09-.43-2.03-1.04-2.81-1.84-.78-.79-1.39-1.73-1.82-2.81-.43-1.08-.65-2.28-.65-3.6,0-1.56.37-2.96,1.12-4.21.74-1.25,1.78-2.24,3.1-2.97,1.32-.73,2.83-1.1,4.54-1.1,1.1,0,2.11.17,3.02.5.91.34,1.7.79,2.38,1.37s1.19,1.24,1.57,1.98c.37.74.56,1.51.56,2.3,0,1.18-.27,1.97-.81,2.39s-1.19.63-1.96.63h-11.34c-.05,1.27.27,2.36.95,3.28.68.91,1.55,1.61,2.59,2.11,1.04.49,2.09.74,3.15.74.7,0,1.3-.04,1.82-.11.52-.07.96-.17,1.33-.31s.69-.26.95-.4c.26-.13.5-.26.72-.4s.42-.23.61-.31c.12-.05.26-.07.41-.05.16.01.27.08.34.2.12.17.2.32.25.45s.07.28.07.45c0,.22-.29.51-.86.88-.58.37-1.36.71-2.34,1.01-.98.3-2.08.45-3.28.45ZM146.36,48.68h10.73c.48,0,.85-.05,1.12-.16.26-.11.4-.46.4-1.06,0-.79-.25-1.52-.74-2.18-.49-.66-1.16-1.19-2-1.6-.84-.41-1.8-.61-2.88-.61-1.2,0-2.31.24-3.33.72-1.02.48-1.83,1.15-2.43,2-.6.85-.89,1.82-.86,2.9Z"/>
    <path class="st0" d="M170.23,58.44c-.55,0-1.11-.05-1.67-.16-.56-.11-1.1-.26-1.62-.47-.52-.2-.99-.44-1.42-.72-.43-.28-.78-.58-1.04-.92-.17-.24-.29-.44-.36-.61-.07-.17-.08-.32-.02-.47.06-.14.17-.28.34-.4.26-.29.52-.41.76-.36.24.05.55.28.94.68.22.24.49.46.83.67.34.2.7.38,1.08.52.38.14.77.25,1.15.32.38.07.74.11,1.08.11,1.32,0,2.39-.26,3.2-.77.82-.52,1.22-1.22,1.22-2.11,0-.46-.08-.86-.25-1.21-.17-.35-.4-.64-.68-.88-.29-.24-.62-.45-.99-.63s-.78-.34-1.22-.47c-.44-.13-.89-.26-1.35-.38-.67-.17-1.34-.35-2-.56-.66-.2-1.25-.46-1.78-.77-.53-.31-.95-.72-1.28-1.22s-.49-1.15-.49-1.94c0-.91.23-1.7.7-2.38.47-.67,1.12-1.2,1.96-1.58.84-.38,1.81-.58,2.92-.58.55,0,1.07.04,1.55.13.48.08.93.21,1.35.38.42.17.82.37,1.19.59.37.23.71.5,1.03.81.29.26.44.5.47.72.02.22-.06.44-.25.68-.22.24-.44.38-.68.41-.24.04-.49-.08-.76-.34-.38-.38-.79-.69-1.21-.92-.42-.23-.85-.4-1.3-.52-.45-.12-.91-.18-1.39-.18-.7,0-1.32.11-1.87.34-.55.23-.98.55-1.28.97-.3.42-.45.91-.45,1.46,0,.41.1.75.31,1.03s.47.51.81.7c.34.19.73.36,1.19.5s.94.29,1.44.43c.72.19,1.45.4,2.2.63s1.42.53,2.03.9c.61.37,1.11.86,1.49,1.46.38.6.58,1.38.58,2.34,0,1.44-.61,2.59-1.82,3.46s-2.75,1.3-4.63,1.3Z"/>
  </g>
  <g>
    <path class="st0" d="M17.26,17.25l-.49-.15c-1.43-.43-2.78-.69-4.03-.78l-.35-.02-.11-.33c-.12-.37-.27-.77-.47-1.21l-.12-.28.19-.24c1.67-2.17,4.21-3.95,5.23-4.61l.63-.41.16.74c.57,2.59.05,5.14-.48,6.82l-.16.49ZM13.15,15.32c1.08.1,2.22.32,3.42.65.38-1.35.7-3.16.45-5.03-1.05.74-2.84,2.11-4.13,3.7.1.24.19.47.26.68Z"/>
    <g>
      <path d="M12.77,15.81c.06.18.11.36.16.53,1.19.1,2.46.35,3.82.76.05-.15.11-.31.17-.49-1.48-.44-2.86-.71-4.15-.8Z"/>
      <path class="st0" d="M17.07,17.74l-.47-.14c-1.31-.39-2.56-.64-3.72-.74l-.36-.03-.1-.35c-.05-.17-.09-.34-.15-.51l-.25-.74.78.05c1.33.09,2.76.37,4.26.82l.51.15-.16.5c-.06.19-.12.36-.17.51l-.17.47Z"/>
    </g>
    <g>
      <path d="M51.02,37.77c-1.87-6.58-6.07-10.17-12.47-10.66-.1,0-9.67-.42-10.93,6.63,0,.03-.6,3.09-7.62,3.89-.64.07-1.15.57-1.23,1.21-.25,1.94-.31,6.75,4.55,9.51.46.26.97.38,1.5.35,1.6-.1,5.51-.06,7.35,2.43,1.33,1.8,1.31,4.56-.05,8.2-.05.13.02.28.15.34.13.05.28-.02.34-.15,1.43-3.81,1.43-6.73-.02-8.69-1.99-2.69-6.12-2.75-7.8-2.64-.42.03-.84-.07-1.21-.28-4.58-2.61-4.52-7.16-4.29-8.99.05-.4.37-.71.77-.76,7.47-.86,8.05-4.19,8.07-4.32.49-2.75,2.37-4.63,5.59-5.58,2.44-.72,4.77-.61,4.79-.61,6.16.47,10.19,3.93,12,10.28,1.75,6.16.7,12.8-2.9,18.22-9.52,14.35-19.07,14.87-25.41,12.78C10.17,64.94.29,48,1.09,32.67c.17-3.36.53-6.29,1.71-9.61.52-1.47,1.21-2.71,2.04-3.71.04-.3.09-.61.16-.94-1.14,1.14-2.04,2.63-2.69,4.47-1.2,3.39-1.56,6.35-1.74,9.76-.8,15.54,9.24,32.72,21.49,36.76,1.56.51,3.12.81,4.67.89,7.61.39,15.05-4.39,21.34-13.87,3.68-5.55,4.76-12.35,2.97-18.65Z"/>
      <path class="st0" d="M26.69,70.81c-1.6-.08-3.21-.39-4.8-.91C9.44,65.79-.77,48.37.05,32.62c.18-3.45.55-6.46,1.77-9.91.67-1.9,1.62-3.47,2.82-4.67l1.23-1.24-.36,1.71c-.06.3-.11.6-.15.9l-.02.15-.1.12c-.8.95-1.46,2.15-1.95,3.55-1.16,3.27-1.51,6.15-1.68,9.47-.78,15.12,8.93,31.81,20.77,35.72,6.17,2.03,15.48,1.5,24.81-12.57,3.51-5.29,4.54-11.78,2.83-17.79-1.74-6.12-5.62-9.45-11.54-9.9,0,0-2.27-.1-4.6.59-3.02.89-4.78,2.64-5.23,5.18-.06.38-.8,3.86-8.53,4.75-.17.02-.3.14-.32.31-.22,1.73-.27,6.02,4.03,8.47.28.16.6.24.92.22,1.77-.11,6.11-.05,8.25,2.85,1.56,2.11,1.58,5.19.08,9.18-.07.2-.22.35-.41.44-.19.09-.4.09-.6.02-.4-.15-.61-.6-.46-1.01,1.3-3.46,1.34-6.05.12-7.7-1.69-2.28-5.39-2.31-6.9-2.22-.62.04-1.24-.11-1.79-.42-5.12-2.92-5.07-7.99-4.81-10.03.11-.87.81-1.56,1.69-1.66,6.5-.74,7.16-3.45,7.17-3.48,1.33-7.48,11.36-7.06,11.46-7.05,6.65.51,11,4.22,12.94,11.03h0c1.84,6.45.73,13.41-3.03,19.08-6.39,9.63-13.93,14.51-21.8,14.1Z"/>
    </g>
    <g>
      <path d="M18.52,17.7c.06.02,5.8,2.29,4.82,6.48-.11.47.09.93.3,1.32.34.63.99,1.51,2.12,2.12.12.06.18.2.17.33-.18,1.36-1.3,5.86-8.17,6.83-.47.07-.91.25-1.26.52-1.13.88-3.57,3.45-1.72,8.11.05.13.2.2.34.15.13-.05.2-.2.15-.34-1.72-4.34.52-6.7,1.56-7.51.28-.22.63-.36,1.01-.42,7.24-1.02,8.42-5.83,8.61-7.27.05-.35-.13-.69-.43-.86-1.02-.55-1.6-1.34-1.91-1.91-.16-.3-.32-.65-.25-.95,1.09-4.63-5.07-7.06-5.14-7.08-.44-.16-.86-.31-1.28-.45-.06.18-.11.34-.17.49.41.13.83.28,1.26.44Z"/>
      <path class="st0" d="M14.97,44.08c-.3-.02-.57-.2-.69-.49-1.98-4.99.66-7.76,1.88-8.71.42-.33.94-.55,1.51-.63,6.3-.89,7.49-4.86,7.71-6.25-1.17-.67-1.84-1.59-2.21-2.26-.24-.45-.5-1.04-.35-1.69.87-3.7-4.38-5.82-4.5-5.87-.42-.16-.83-.3-1.24-.43l-.51-.17.18-.51c.05-.14.11-.3.16-.48l.16-.5.5.16c.43.14.86.29,1.31.45.07.03,6.65,2.62,5.46,7.69-.02.07,0,.22.2.58.27.5.79,1.21,1.7,1.7.49.27.78.82.7,1.38-.2,1.54-1.46,6.65-9.06,7.72-.29.04-.55.15-.76.31-.95.74-2.98,2.9-1.39,6.91.16.4-.04.86-.44,1.01-.11.04-.22.06-.33.05Z"/>
    </g>
    <g>
      <path d="M5.71,17.77c.52-1.95,1.62-4.4,3.81-7.24.42.65,1.41,2.26,2.17,3.96.11-.16.23-.32.36-.47-.97-2.09-2.2-3.95-2.29-4.08-.05-.07-.12-.12-.21-.11-.08,0-.16.03-.21.1-2.71,3.43-3.88,6.32-4.34,8.49.23-.23.47-.44.71-.64Z"/>
      <path class="st0" d="M4.13,20.02l.36-1.71c.58-2.79,2.08-5.72,4.44-8.71.15-.19.38-.3.62-.3.26,0,.49.12.64.35.05.08,1.33,1.98,2.33,4.15l.14.29-.2.25c-.12.15-.23.3-.34.45l-.53.73-.37-.82c-.56-1.26-1.26-2.46-1.73-3.25-1.61,2.2-2.71,4.37-3.26,6.46l-.04.16-.13.11c-.24.19-.46.39-.67.6l-1.24,1.24Z"/>
    </g>
    <g>
      <path d="M12.38,16.3c.21.71.33,1.39.28,1.94-.01.14.09.27.24.28.14.02.27-.09.28-.24.05-.57-.06-1.24-.25-1.95-.18-.02-.37-.03-.55-.04Z"/>
      <path class="st0" d="M12.89,19.05s-.03,0-.05,0c-.41-.04-.73-.41-.69-.84.04-.45-.05-1.03-.26-1.75l-.21-.7.73.03c.19,0,.38.02.57.04l.36.03.1.35c.23.84.32,1.54.27,2.14-.02.21-.12.41-.28.54-.15.12-.33.18-.52.17ZM12.66,18.25h0s0,0,0,0Z"/>
    </g>
    <g>
      <path d="M4.84,19.35c-.29,2.2.17,3.48.21,3.58.04.1.13.16.23.17.03,0,.07,0,.11-.02.13-.05.2-.2.15-.33,0-.03-.54-1.52-.02-4.11-.23.22-.46.46-.67.71Z"/>
      <path class="st0" d="M5.25,23.62c-.31-.02-.58-.21-.69-.5-.06-.15-.54-1.52-.24-3.84l.02-.15.1-.12c.22-.26.46-.52.71-.76l1.19-1.14-.32,1.61c-.48,2.42,0,3.82,0,3.84.15.4-.06.85-.46,1-.1.04-.21.05-.32.05ZM5.05,22.93s0,0,0,0c0,0,0,0,0,0Z"/>
    </g>
    <g>
      <path d="M12.77,15.81c-.14-.42-.3-.84-.48-1.26-.13.16-.24.33-.36.5.1.24.19.49.28.73.18,0,.37.02.56.03Z"/>
      <path class="st0" d="M13.51,16.38l-.77-.05c-.18-.01-.36-.02-.54-.03h-.36s-.12-.35-.12-.35c-.08-.23-.17-.47-.27-.7l-.11-.26.16-.23c.12-.18.24-.35.37-.52l.54-.7.35.82c.2.47.37.9.5,1.3l.24.74Z"/>
    </g>
    <g>
      <path d="M5.51,18.64c.05-.28.12-.57.2-.87-.25.2-.49.41-.71.64-.07.33-.12.64-.16.94.21-.25.44-.49.67-.71Z"/>
      <path class="st0" d="M4.09,21.05l.23-1.77c.04-.33.1-.66.17-.98l.03-.15.11-.11c.24-.24.49-.47.75-.68l1.24-1-.41,1.54c-.08.29-.14.57-.2.84l-.03.16-.12.11c-.22.21-.44.44-.63.67l-1.15,1.37Z"/>
    </g>
    <g>
      <path d="M12.21,15.78c.06.18.12.35.17.53.18,0,.36.02.55.04-.05-.18-.1-.35-.16-.53-.19-.01-.38-.02-.56-.03Z"/>
      <path class="st0" d="M13.63,16.92l-.75-.06c-.18-.02-.35-.03-.53-.04l-.37-.02-.11-.35c-.05-.16-.1-.33-.16-.5l-.25-.72.76.02c.19,0,.39.02.58.03l.35.02.11.33c.06.19.12.37.17.56l.2.72Z"/>
    </g>
    <g>
      <path d="M17.39,10.06c.56,2.55,0,5.07-.47,6.55.17.05.33.1.5.16.52-1.61,1.12-4.38.39-7.19-.02-.08-.08-.14-.15-.18-.08-.03-.16-.02-.23.02-.19.12-3.34,2.05-5.37,4.59.08.18.16.36.24.54,1.64-2.14,4.22-3.92,5.1-4.5Z"/>
      <path class="st0" d="M17.76,17.42l-.5-.16c-.19-.06-.34-.11-.49-.16l-.51-.15.16-.5c.44-1.39.87-3.41.59-5.51-1.11.78-3.02,2.25-4.31,3.93l-.54.7-.35-.82c-.08-.18-.16-.35-.24-.53l-.13-.29.2-.25c2.1-2.62,5.37-4.63,5.51-4.71.21-.13.47-.15.69-.06.23.1.41.29.47.53.74,2.85.2,5.64-.39,7.48l-.16.5Z"/>
    </g>
    <g>
      <path d="M16.75,17.1c.17.05.33.1.5.16.05-.15.11-.31.17-.49-.17-.05-.34-.11-.5-.16-.06.18-.11.35-.17.49Z"/>
      <path class="st0" d="M17.57,17.91l-.48-.15c-.17-.05-.33-.11-.49-.15l-.52-.16.18-.52c.05-.14.1-.3.16-.48l.15-.49.49.15c.15.05.31.1.47.15l.5.16-.11.51c-.06.18-.12.36-.17.51l-.17.47Z"/>
    </g>
    <g>
      <path d="M11.93,15.05c.11-.17.23-.33.36-.5-.08-.18-.16-.36-.24-.54-.12.15-.24.31-.36.47.08.19.17.38.24.57Z"/>
      <path class="st0" d="M11.82,16.14l-.37-.9c-.08-.18-.16-.37-.24-.55l-.12-.27.17-.24c.12-.17.24-.33.37-.49l.53-.66.35.76c.09.18.17.37.25.55l.12.28-.19.24c-.12.16-.23.31-.34.47l-.54.8Z"/>
    </g>
    <g>
      <path d="M36.76,31.46c-.14-.04-.28.04-.32.17-.12.41-3.03,10.17-.67,14.51.53.97,1.28,1.6,2.25,1.88.32.09.64.15.95.16,1.2.06,2.33-.44,3.33-1.48,2.83-2.96,4.06-9.91,3.2-12.43-.05-.14-.19-.21-.33-.16-.14.05-.21.19-.16.33.8,2.34-.42,9.11-3.08,11.9-1.13,1.18-2.39,1.57-3.75,1.18-.83-.24-1.48-.79-1.93-1.63-2.25-4.15.68-14.01.71-14.11.04-.14-.04-.28-.17-.32Z"/>
      <path class="st0" d="M38.93,48.72c-.35-.02-.71-.08-1.07-.18-1.1-.32-1.96-1.04-2.56-2.14-2.46-4.54.51-14.49.63-14.91.12-.41.56-.64.97-.52h0c.41.12.65.56.52.97-.82,2.7-2.54,10.42-.75,13.71.39.72.93,1.18,1.62,1.38,1.18.35,2.24,0,3.23-1.04,2.5-2.62,3.71-9.19,2.97-11.37-.07-.2-.05-.41.04-.6s.25-.33.45-.4c.2-.07.41-.05.6.04.19.09.33.25.4.45.9,2.63-.28,9.77-3.31,12.96-1.09,1.14-2.38,1.71-3.73,1.64ZM45.49,34.29s0,0,0,0c0,0,0,0,0,0Z"/>
    </g>
  </g>
</svg>