<?xml version="1.0" encoding="UTF-8"?>
<svg id="Layer_1" xmlns="http://www.w3.org/2000/svg" version="1.1" viewBox="0 0 52.39 61.98">
  <!-- Generator: Adobe Illustrator 29.1.0, SVG Export Plug-In . SVG Version: 2.1.0 Build 142)  -->
  <defs>
    <style>
      .st0 {
        fill: #231f20;
      }
    </style>
  </defs>
  <path class="st0" d="M17.26,8.39l-.49-.15c-1.43-.43-2.78-.69-4.03-.78l-.35-.02-.11-.33c-.12-.37-.27-.77-.47-1.21l-.12-.28.19-.24c1.67-2.17,4.21-3.95,5.23-4.61l.63-.41.16.74c.57,2.59.05,5.14-.48,6.82l-.16.49ZM13.15,6.46c1.08.1,2.22.32,3.42.65.38-1.35.7-3.16.45-5.03-1.05.74-2.84,2.11-4.13,3.7.1.24.19.47.26.68Z"/>
  <g>
    <path d="M12.77,6.95c.06.18.11.36.16.53,1.19.1,2.46.35,3.82.76.05-.15.11-.31.17-.49-1.48-.44-2.86-.71-4.15-.8Z"/>
    <path class="st0" d="M17.07,8.88l-.47-.14c-1.31-.39-2.56-.64-3.72-.74l-.36-.03-.1-.35c-.05-.17-.09-.34-.15-.51l-.25-.74.78.05c1.33.09,2.76.37,4.26.82l.51.15-.16.5c-.06.19-.12.36-.17.51l-.17.47Z"/>
  </g>
  <g>
    <path d="M51.02,28.91c-1.87-6.58-6.07-10.17-12.47-10.66-.1,0-9.67-.42-10.93,6.63,0,.03-.6,3.09-7.62,3.89-.64.07-1.15.57-1.23,1.21-.25,1.94-.31,6.75,4.55,9.51.46.26.97.38,1.5.35,1.6-.1,5.51-.06,7.35,2.43,1.33,1.8,1.31,4.56-.05,8.2-.05.13.02.28.15.34.13.05.28-.02.34-.15,1.43-3.81,1.43-6.73-.02-8.69-1.99-2.69-6.12-2.75-7.8-2.64-.42.03-.84-.07-1.21-.28-4.58-2.61-4.52-7.16-4.29-8.99.05-.4.37-.71.77-.76,7.47-.86,8.05-4.19,8.07-4.32.49-2.75,2.37-4.63,5.59-5.58,2.44-.72,4.77-.61,4.79-.61,6.16.47,10.19,3.93,12,10.28,1.75,6.16.7,12.8-2.9,18.22-9.52,14.35-19.07,14.87-25.41,12.78C10.17,56.08.29,39.15,1.09,23.82c.17-3.36.53-6.29,1.71-9.61.52-1.47,1.21-2.71,2.04-3.71.04-.3.09-.61.16-.94-1.14,1.14-2.04,2.63-2.69,4.47-1.2,3.39-1.56,6.35-1.74,9.76-.8,15.54,9.24,32.72,21.49,36.76,1.56.51,3.12.81,4.67.89,7.61.39,15.05-4.39,21.34-13.87,3.68-5.55,4.76-12.35,2.97-18.65Z"/>
    <path class="st0" d="M26.69,61.95c-1.6-.08-3.21-.39-4.8-.91C9.44,56.93-.77,39.51.05,23.76c.18-3.45.55-6.46,1.77-9.91.67-1.9,1.62-3.47,2.82-4.67l1.23-1.24-.36,1.71c-.06.3-.11.6-.15.9l-.02.15-.1.12c-.8.95-1.46,2.15-1.95,3.55-1.16,3.27-1.51,6.15-1.68,9.47-.78,15.12,8.93,31.81,20.77,35.72,6.17,2.03,15.48,1.5,24.81-12.57,3.51-5.29,4.54-11.78,2.83-17.79-1.74-6.12-5.62-9.45-11.54-9.9,0,0-2.27-.1-4.6.59-3.02.89-4.78,2.64-5.23,5.18-.06.38-.8,3.86-8.53,4.75-.17.02-.3.14-.32.31-.22,1.73-.27,6.02,4.03,8.47.28.16.6.24.92.22,1.77-.11,6.11-.05,8.25,2.85,1.56,2.11,1.58,5.19.08,9.18-.07.2-.22.35-.41.44-.19.09-.4.09-.6.02-.4-.15-.61-.6-.46-1.01,1.3-3.46,1.34-6.05.12-7.7-1.69-2.28-5.39-2.31-6.9-2.22-.62.04-1.24-.11-1.79-.42-5.12-2.92-5.07-7.99-4.81-10.03.11-.87.81-1.56,1.69-1.66,6.5-.74,7.16-3.45,7.17-3.48,1.33-7.48,11.36-7.06,11.46-7.05,6.65.51,11,4.22,12.94,11.03h0c1.84,6.45.73,13.41-3.03,19.08-6.39,9.63-13.93,14.51-21.8,14.1Z"/>
  </g>
  <g>
    <path d="M18.52,8.84c.06.02,5.8,2.29,4.82,6.48-.11.47.09.93.3,1.32.34.63.99,1.51,2.12,2.12.12.06.18.2.17.33-.18,1.36-1.3,5.86-8.17,6.83-.47.07-.91.25-1.26.52-1.13.88-3.57,3.45-1.72,8.11.05.13.2.2.34.15.13-.05.2-.2.15-.34-1.72-4.34.52-6.7,1.56-7.51.28-.22.63-.36,1.01-.42,7.24-1.02,8.42-5.83,8.61-7.27.05-.35-.13-.69-.43-.86-1.02-.55-1.6-1.34-1.91-1.91-.16-.3-.32-.65-.25-.95,1.09-4.63-5.07-7.06-5.14-7.08-.44-.16-.86-.31-1.28-.45-.06.18-.11.34-.17.49.41.13.83.28,1.26.44Z"/>
    <path class="st0" d="M14.97,35.22c-.3-.02-.57-.2-.69-.49-1.98-4.99.66-7.76,1.88-8.71.42-.33.94-.55,1.51-.63,6.3-.89,7.49-4.86,7.71-6.25-1.17-.67-1.84-1.59-2.21-2.26-.24-.45-.5-1.04-.35-1.69.87-3.7-4.38-5.82-4.5-5.87-.42-.16-.83-.3-1.24-.43l-.51-.17.18-.51c.05-.14.11-.3.16-.48l.16-.5.5.16c.43.14.86.29,1.31.45.07.03,6.65,2.62,5.46,7.69-.02.07,0,.22.2.58.27.5.79,1.21,1.7,1.7.49.27.78.82.7,1.38-.2,1.54-1.46,6.65-9.06,7.72-.29.04-.55.15-.76.31-.95.74-2.98,2.9-1.39,6.91.16.4-.04.86-.44,1.01-.11.04-.22.06-.33.05Z"/>
  </g>
  <g>
    <path d="M5.71,8.91c.52-1.95,1.62-4.4,3.81-7.24.42.65,1.41,2.26,2.17,3.96.11-.16.23-.32.36-.47-.97-2.09-2.2-3.95-2.29-4.08-.05-.07-.12-.12-.21-.11-.08,0-.16.03-.21.1-2.71,3.43-3.88,6.32-4.34,8.49.23-.23.47-.44.71-.64Z"/>
    <path class="st0" d="M4.13,11.16l.36-1.71c.58-2.79,2.08-5.72,4.44-8.71.15-.19.38-.3.62-.3.26,0,.49.12.64.35.05.08,1.33,1.98,2.33,4.15l.14.29-.2.25c-.12.15-.23.3-.34.45l-.53.73-.37-.82c-.56-1.26-1.26-2.46-1.73-3.25-1.61,2.2-2.71,4.37-3.26,6.46l-.04.16-.13.11c-.24.19-.46.39-.67.6l-1.24,1.24Z"/>
  </g>
  <g>
    <path d="M12.38,7.44c.21.71.33,1.39.28,1.94-.01.14.09.27.24.28.14.02.27-.09.28-.24.05-.57-.06-1.24-.25-1.95-.18-.02-.37-.03-.55-.04Z"/>
    <path class="st0" d="M12.89,10.19s-.03,0-.05,0c-.41-.04-.73-.41-.69-.84.04-.45-.05-1.03-.26-1.75l-.21-.7.73.03c.19,0,.38.02.57.04l.36.03.1.35c.23.84.32,1.54.27,2.14-.02.21-.12.41-.28.54-.15.12-.33.18-.52.17ZM12.66,9.39h0s0,0,0,0Z"/>
  </g>
  <g>
    <path d="M4.84,10.49c-.29,2.2.17,3.48.21,3.58.04.1.13.16.23.17.03,0,.07,0,.11-.02.13-.05.2-.2.15-.33,0-.03-.54-1.52-.02-4.11-.23.22-.46.46-.67.71Z"/>
    <path class="st0" d="M5.25,14.76c-.31-.02-.58-.21-.69-.5-.06-.15-.54-1.52-.24-3.84l.02-.15.1-.12c.22-.26.46-.52.71-.76l1.19-1.14-.32,1.61c-.48,2.42,0,3.82,0,3.84.15.4-.06.85-.46,1-.1.04-.21.05-.32.05ZM5.05,14.07s0,0,0,0c0,0,0,0,0,0Z"/>
  </g>
  <g>
    <path d="M12.77,6.95c-.14-.42-.3-.84-.48-1.26-.13.16-.24.33-.36.5.1.24.19.49.28.73.18,0,.37.02.56.03Z"/>
    <path class="st0" d="M13.51,7.52l-.77-.05c-.18-.01-.36-.02-.54-.03h-.36s-.12-.35-.12-.35c-.08-.23-.17-.47-.27-.7l-.11-.26.16-.23c.12-.18.24-.35.37-.52l.54-.7.35.82c.2.47.37.9.5,1.3l.24.74Z"/>
  </g>
  <g>
    <path d="M5.51,9.78c.05-.28.12-.57.2-.87-.25.2-.49.41-.71.64-.07.33-.12.64-.16.94.21-.25.44-.49.67-.71Z"/>
    <path class="st0" d="M4.09,12.2l.23-1.77c.04-.33.1-.66.17-.98l.03-.15.11-.11c.24-.24.49-.47.75-.68l1.24-1-.41,1.54c-.08.29-.14.57-.2.84l-.03.16-.12.11c-.22.21-.44.44-.63.67l-1.15,1.37Z"/>
  </g>
  <g>
    <path d="M12.21,6.92c.06.18.12.35.17.53.18,0,.36.02.55.04-.05-.18-.1-.35-.16-.53-.19-.01-.38-.02-.56-.03Z"/>
    <path class="st0" d="M13.63,8.06l-.75-.06c-.18-.02-.35-.03-.53-.04l-.37-.02-.11-.35c-.05-.16-.1-.33-.16-.5l-.25-.72.76.02c.19,0,.39.02.58.03l.35.02.11.33c.06.19.12.37.17.56l.2.72Z"/>
  </g>
  <g>
    <path d="M17.39,1.2c.56,2.55,0,5.07-.47,6.55.17.05.33.1.5.16.52-1.61,1.12-4.38.39-7.19-.02-.08-.08-.14-.15-.18-.08-.03-.16-.02-.23.02-.19.12-3.34,2.05-5.37,4.59.08.18.16.36.24.54,1.64-2.14,4.22-3.92,5.1-4.5Z"/>
    <path class="st0" d="M17.76,8.56l-.5-.16c-.19-.06-.34-.11-.49-.16l-.51-.15.16-.5c.44-1.39.87-3.41.59-5.51-1.11.78-3.02,2.25-4.31,3.93l-.54.7-.35-.82c-.08-.18-.16-.35-.24-.53l-.13-.29.2-.25C13.74,2.2,17.01.2,17.15.11c.21-.13.47-.15.69-.06.23.1.41.29.47.53.74,2.85.2,5.64-.39,7.48l-.16.5Z"/>
  </g>
  <g>
    <path d="M16.75,8.24c.17.05.33.1.5.16.05-.15.11-.31.17-.49-.17-.05-.34-.11-.5-.16-.06.18-.11.35-.17.49Z"/>
    <path class="st0" d="M17.57,9.05l-.48-.15c-.17-.05-.33-.11-.49-.15l-.52-.16.18-.52c.05-.14.1-.3.16-.48l.15-.49.49.15c.15.05.31.1.47.15l.5.16-.11.51c-.06.18-.12.36-.17.51l-.17.47Z"/>
  </g>
  <g>
    <path d="M11.93,6.19c.11-.17.23-.33.36-.5-.08-.18-.16-.36-.24-.54-.12.15-.24.31-.36.47.08.19.17.38.24.57Z"/>
    <path class="st0" d="M11.82,7.28l-.37-.9c-.08-.18-.16-.37-.24-.55l-.12-.27.17-.24c.12-.17.24-.33.37-.49l.53-.66.35.76c.09.18.17.37.25.55l.12.28-.19.24c-.12.16-.23.31-.34.47l-.54.8Z"/>
  </g>
  <g>
    <path d="M36.76,22.61c-.14-.04-.28.04-.32.17-.12.41-3.03,10.17-.67,14.51.53.97,1.28,1.6,2.25,1.88.32.09.64.15.95.16,1.2.06,2.33-.44,3.33-1.48,2.83-2.96,4.06-9.91,3.2-12.43-.05-.14-.19-.21-.33-.16-.14.05-.21.19-.16.33.8,2.34-.42,9.11-3.08,11.9-1.13,1.18-2.39,1.57-3.75,1.18-.83-.24-1.48-.79-1.93-1.63-2.25-4.15.68-14.01.71-14.11.04-.14-.04-.28-.17-.32Z"/>
    <path class="st0" d="M38.93,39.86c-.35-.02-.71-.08-1.07-.18-1.1-.32-1.96-1.04-2.56-2.14-2.46-4.54.51-14.49.63-14.91.12-.41.56-.64.97-.52h0c.41.12.65.56.52.97-.82,2.7-2.54,10.42-.75,13.71.39.72.93,1.18,1.62,1.38,1.18.35,2.24,0,3.23-1.04,2.5-2.62,3.71-9.19,2.97-11.37-.07-.2-.05-.41.04-.6s.25-.33.45-.4c.2-.07.41-.05.6.04.19.09.33.25.4.45.9,2.63-.28,9.77-3.31,12.96-1.09,1.14-2.38,1.71-3.73,1.64ZM45.49,25.43s0,0,0,0c0,0,0,0,0,0Z"/>
  </g>
</svg>